<svg xmlns="http://www.w3.org/2000/svg" viewBox="0 0 371.25 65.21">
  <defs>
    <style>
      .a{fill:#fff}
    </style>
  </defs>
  <path class="a" d="m1.72 0 29 42.26L60.3 0l1.52.66V63.3H50.57V33.11l-1.52-.37c-5.72 8.95-11.45 17.91-17.79 27.81L12.43 33.21l-1.29.3v29.76H0V.77ZM258.91 22.23h9.39c.54 1.66 1 3.16 1.54 4.71 14.38-8.53 21.12-8.48 29.58.28 5.72-5 12.14-8 20-5.59 4.86 1.52 8.27 4.65 8.52 9.93.46 9.64.55 19.3.76 29a14.51 14.51 0 0 1-.52 2.71h-10.96v-15.4c0-3.17.34-6.41-.24-9.47-.47-2.52-1.59-6.28-3.31-6.86a11.31 11.31 0 0 0-8.67 1.28c-4.48 2.88-5.88 7.88-6 13.1-.08 5.63 0 11.25 0 17.26h-11v-8.77c0-5.66.18-11.33-.06-17-.25-6-4.49-8.53-10-6-5.69 2.6-7.5 7.76-7.93 13.47-.33 4.31-.16 8.66-.3 13-.06 1.77-.37 3.54-.59 5.48h-10.21ZM66.69 42.85c.08-13 9.23-22.32 21.88-22.24 12.11.07 21 9.34 21.08 22 .07 13.1-9 22.13-21.93 22-12.64-.23-21.11-8.95-21.03-21.76Zm31.66-.45c0-7.19-4.21-12.28-10.19-12.3s-10.2 5-10.27 12.24 4.18 12.2 10.2 12.22S98.36 49.6 98.35 42.4ZM210.33 38.63 182.65 49c7.32 9.85 15.76 7.1 24.74 3.11 1.13 2.46 2.12 4.62 3.05 6.62-8.07 7.61-24.43 8-32.64 1.08-8-6.68-9.59-20.9-3.46-30.17A21.13 21.13 0 0 1 196.69 21c7.86 2 12.89 8.25 13.64 17.63Zm-10.84-2.7c-3.31-5.75-6.48-7.31-10.77-5.84-4.59 1.57-7 5.81-6.34 11.76ZM371 38.73l-27.16 10.06c2.46 5 6.4 7.17 11.24 6.8 4.35-.32 8.61-1.77 13.52-2.86.82 1.76 1.76 3.81 2.65 5.72-5.49 6.16-18.69 8.12-27.62 4.32-8.23-3.51-12.95-11.84-12.19-21.5 1.15-14.59 13.23-23.67 26.64-20 7.62 2.05 12.65 8.59 12.92 17.46Zm-10.66-2.79c-2.24-4.78-5.25-7.1-10-6.1-4.93 1-7.78 5.7-7.32 12.06ZM229.49 31.74V63.3H218.7V32.07l-6-1v-8.76l6-1.28V4h10.85v17.23l9.29.72v9.35ZM109.13 22.26H122l10.77 21.82c3.48-7.85 6.58-14.86 9.63-21.77h12.06l-22 42.9c-7.89-14.46-15.29-28.13-23.33-42.95ZM156.61 22.17H167v41.11h-10.39ZM252.78 63.36h-10.23V22.24h10.23ZM162.42.22a6.42 6.42 0 0 1 6.2 6.51 6.44 6.44 0 0 1-12.86-.6 6.15 6.15 0 0 1 6.66-5.91ZM247.22 12.64c-3.07-.18-5.26-2.36-5.63-6.15-.33-3.38 2.72-6.25 6.28-6.26a6.24 6.24 0 0 1 6.49 6.12c.06 3.53-2.67 6.26-7.14 6.29Z"/>
</svg>
